<svg width="106" height="94" viewBox="0 0 106 94" fill="none" xmlns="http://www.w3.org/2000/svg">
<path d="M105.312 47.0108C105.312 40.0344 96.5754 33.4228 83.1806 29.3228C86.2717 15.6705 84.8979 4.80871 78.8445 1.33123C77.4492 0.515519 75.8178 0.129132 74.0361 0.129132V4.91604C75.0235 4.91604 75.8178 5.10923 76.4832 5.47416C79.4026 7.1485 80.6691 13.5239 79.6816 21.7239C79.4455 23.7417 79.0591 25.8668 78.5869 28.0349C74.3795 27.0045 69.7858 26.2103 64.956 25.6951C62.0581 21.7239 59.0529 18.1176 56.0262 14.9621C63.0241 8.45792 69.5926 4.89458 74.0576 4.89458V0.107666C68.1544 0.107666 60.4267 4.315 52.6131 11.6134C44.7995 4.35793 37.0717 0.19353 31.1686 0.19353V4.98044C35.612 4.98044 42.2021 8.52232 49.2 14.9836C46.1947 18.1391 43.1895 21.7239 40.3345 25.6951C35.4832 26.2103 30.8895 27.0045 26.6822 28.0563C26.1885 25.9097 25.8235 23.8276 25.566 21.8312C24.5571 13.6312 25.8021 7.25583 28.7 5.56002C29.344 5.17363 30.1811 5.00191 31.1686 5.00191V0.214996C29.3654 0.214996 27.734 0.601383 26.3173 1.41709C20.2853 4.89457 18.933 15.7349 22.0455 29.3443C8.69371 33.4658 0 40.0558 0 47.0108C0 53.9872 8.73664 60.5987 22.1314 64.6987C19.0403 78.3511 20.4141 89.2129 26.4675 92.6903C27.8628 93.5061 29.4942 93.8924 31.2974 93.8924C37.2005 93.8924 44.9283 89.6851 52.7419 82.3867C60.5555 89.6422 68.2832 93.8066 74.1864 93.8066C75.9895 93.8066 77.6209 93.4202 79.0377 92.6045C85.0696 89.127 86.422 78.2867 83.3094 64.6773C96.6183 60.5773 105.312 53.9658 105.312 47.0108ZM77.3633 32.693C76.5691 35.4621 75.5816 38.3171 74.4654 41.172C73.5853 39.4548 72.6623 37.7375 71.6534 36.0202C70.6659 34.3029 69.6141 32.6286 68.5623 30.9972C71.6104 31.448 74.5513 32.0061 77.3633 32.693ZM67.5319 55.5542C65.8576 58.4521 64.1403 61.1998 62.3586 63.7542C59.1602 64.0333 55.9188 64.1836 52.656 64.1836C49.4146 64.1836 46.1733 64.0333 42.9963 63.7757C41.2146 61.2213 39.4759 58.4951 37.8016 55.6186C36.1701 52.8066 34.689 49.9516 33.3366 47.0752C34.6675 44.1987 36.1701 41.3223 37.7801 38.5103C39.4544 35.6124 41.1717 32.8647 42.9534 30.3103C46.1518 30.0312 49.3932 29.881 52.656 29.881C55.8974 29.881 59.1387 30.0312 62.3157 30.2888C64.0974 32.8433 65.8361 35.5694 67.5104 38.4459C69.1419 41.2579 70.623 44.1129 71.9754 46.9893C70.623 49.8658 69.1419 52.7422 67.5319 55.5542ZM74.4654 52.7637C75.6246 55.6401 76.612 58.5165 77.4277 61.3071C74.6157 61.994 71.6534 62.5736 68.5837 63.0244C69.6356 61.3715 70.6874 59.6757 71.6748 57.937C72.6623 56.2197 73.5853 54.4809 74.4654 52.7637ZM52.6989 75.6678C50.7026 73.6071 48.7063 71.3103 46.7314 68.7987C48.6633 68.8846 50.6382 68.949 52.6345 68.949C54.6523 68.949 56.6487 68.9061 58.6021 68.7987C56.6701 71.3103 54.6738 73.6071 52.6989 75.6678ZM36.7283 63.0244C33.6801 62.5736 30.7393 62.0155 27.9272 61.3286C28.7215 58.5595 29.7089 55.7045 30.8251 52.8495C31.7052 54.5668 32.6283 56.2841 33.6372 58.0014C34.6461 59.7186 35.6764 61.393 36.7283 63.0244ZM52.5916 18.3537C54.5879 20.4145 56.5843 22.7113 58.5591 25.2228C56.6272 25.137 54.6523 25.0726 52.656 25.0726C50.6382 25.0726 48.6419 25.1155 46.6885 25.2228C48.6204 22.7113 50.6167 20.4145 52.5916 18.3537ZM36.7068 30.9972C35.655 32.6501 34.6031 34.3459 33.6157 36.0846C32.6283 37.8019 31.7052 39.5192 30.8251 41.2364C29.666 38.36 28.6785 35.4836 27.8628 32.693C30.6749 32.0275 33.6372 31.448 36.7068 30.9972ZM17.2801 57.8726C9.68115 54.6312 4.76544 50.3809 4.76544 47.0108C4.76544 43.6406 9.68115 39.3689 17.2801 36.149C19.1262 35.3548 21.144 34.6464 23.2262 33.981C24.4497 38.1883 26.0597 42.5673 28.056 47.0537C26.0811 51.5186 24.4927 55.8762 23.2906 60.0621C21.1654 59.3966 19.1476 58.6668 17.2801 57.8726ZM28.8288 88.5474C25.9094 86.8731 24.6429 80.4977 25.6304 72.2977C25.8665 70.2799 26.2529 68.1548 26.7251 65.9867C30.9325 67.0171 35.5262 67.8113 40.356 68.3265C43.2539 72.2977 46.2591 75.904 49.2858 79.0595C42.2879 85.5636 35.7194 89.127 31.2544 89.127C30.2885 89.1055 29.4728 88.9123 28.8288 88.5474ZM79.746 72.1904C80.7549 80.3904 79.5099 86.7657 76.612 88.4616C75.968 88.8479 75.1309 89.0197 74.1434 89.0197C69.7 89.0197 63.1099 85.4778 56.112 79.0165C59.1173 75.861 62.1225 72.2762 64.9775 68.305C69.8288 67.7898 74.4225 66.9956 78.6298 65.9438C79.1235 68.1118 79.5099 70.194 79.746 72.1904ZM88.0104 57.8726C86.1644 58.6668 84.1466 59.3752 82.0644 60.0406C80.8408 55.8333 79.2309 51.4542 77.2345 46.9679C79.2094 42.5029 80.7979 38.1453 82 33.9595C84.1251 34.6249 86.1429 35.3548 88.0319 36.149C95.6308 39.3904 100.547 43.6406 100.547 47.0108C100.525 50.3809 95.6094 54.6527 88.0104 57.8726Z" fill="#61DAFB"/>
<path d="M52.6345 56.8207C58.0524 56.8207 62.4445 52.4286 62.4445 47.0107C62.4445 41.5929 58.0524 37.2008 52.6345 37.2008C47.2167 37.2008 42.8246 41.5929 42.8246 47.0107C42.8246 52.4286 47.2167 56.8207 52.6345 56.8207Z" fill="#61DAFB"/>
</svg>
